<svg width="10" height="10" viewBox="0 0 10 10" fill="none" xmlns="http://www.w3.org/2000/svg">
<path d="M2.00004 9.66119e-07H3.04604L1.99704 3H0.19104L1.55304 0.276001C1.5946 0.193054 1.65843 0.123308 1.73737 0.0745645C1.81631 0.0258214 1.90726 4.07946e-06 2.00004 9.66119e-07ZM0.22704 4L3.24104 8.687L1.97004 4H0.22704ZM3.00604 4L4.53604 9.645C4.56315 9.74737 4.62336 9.8379 4.70729 9.90249C4.79121 9.96708 4.89414 10.0021 5.00004 10.0021C5.10594 10.0021 5.20887 9.96708 5.29279 9.90249C5.37672 9.8379 5.43693 9.74737 5.46404 9.645L6.99804 4H3.00604ZM8.03404 4L6.76004 8.685L9.77304 4H8.03304H8.03404ZM9.80904 3H8.00604L6.95604 9.66119e-07H8.00004C8.09299 -0.000181722 8.18415 0.0255479 8.26328 0.0743014C8.34242 0.123055 8.4064 0.192902 8.44804 0.276001L9.80904 3ZM6.94704 3H3.05704L4.10504 9.66119e-07H5.89504L6.94704 3Z" fill="#EBF3FC"/>
</svg>
